<svg width="14" height="15" viewBox="0 0 14 15" fill="none" xmlns="http://www.w3.org/2000/svg">
<path d="M9.66667 5.33328V3.00038C9.66667 2.44589 9.66667 2.16864 9.54986 1.99826C9.44781 1.8494 9.28976 1.74828 9.11184 1.718C8.90819 1.68335 8.65646 1.79953 8.153 2.03189L2.23934 4.76127C1.79034 4.96851 1.56583 5.07212 1.4014 5.23282C1.25604 5.37489 1.14508 5.54831 1.077 5.73983C1 5.95647 1 6.20373 1 6.69826V9.99995M10 9.66661H10.0067M1 7.46661L1 11.8666C1 12.6133 1 12.9867 1.14532 13.2719C1.27316 13.5228 1.47713 13.7268 1.72801 13.8546C2.01323 13.9999 2.3866 13.9999 3.13333 13.9999H10.8667C11.6134 13.9999 11.9868 13.9999 12.272 13.8546C12.5229 13.7268 12.7268 13.5228 12.8547 13.2719C13 12.9867 13 12.6133 13 11.8666V7.46661C13 6.71988 13 6.34651 12.8547 6.06129C12.7268 5.81041 12.5229 5.60644 12.272 5.47861C11.9868 5.33328 11.6134 5.33328 10.8667 5.33328L3.13333 5.33328C2.3866 5.33328 2.01323 5.33328 1.72801 5.4786C1.47713 5.60644 1.27316 5.81041 1.14532 6.06129C1 6.34651 1 6.71988 1 7.46661ZM10.3333 9.66661C10.3333 9.85071 10.1841 9.99995 10 9.99995C9.81591 9.99995 9.66667 9.85071 9.66667 9.66661C9.66667 9.48252 9.81591 9.33328 10 9.33328C10.1841 9.33328 10.3333 9.48252 10.3333 9.66661Z" stroke="#7E8792" stroke-width="1.5" stroke-linecap="round" stroke-linejoin="round"/>
</svg>
