<svg width="16" height="16" viewBox="0 0 16 16" fill="none" xmlns="http://www.w3.org/2000/svg">
<path d="M9.36648 3.99998C10.0176 4.12702 10.6161 4.44548 11.0852 4.9146C11.5543 5.38372 11.8728 5.98216 11.9998 6.63331M9.36648 1.33331C10.7193 1.4836 11.9809 2.08943 12.944 3.05132C13.9071 4.01321 14.5145 5.27399 14.6665 6.62665M6.8178 9.24203C6.01675 8.44097 5.38422 7.53521 4.92022 6.5688C4.88031 6.48567 4.86036 6.44411 4.84503 6.39152C4.79054 6.20461 4.82968 5.97511 4.94302 5.81682C4.97491 5.77228 5.01302 5.73417 5.08923 5.65797C5.3223 5.4249 5.43883 5.30836 5.51502 5.19118C5.80235 4.74925 5.80235 4.17953 5.51502 3.7376C5.43883 3.62042 5.3223 3.50388 5.08923 3.27081L4.95931 3.1409C4.60502 2.7866 4.42787 2.60945 4.23762 2.51322C3.85924 2.32184 3.4124 2.32184 3.03402 2.51322C2.84377 2.60945 2.66662 2.7866 2.31233 3.1409L2.20724 3.24599C1.85416 3.59907 1.67762 3.77561 1.54278 4.01563C1.39317 4.28197 1.2856 4.69563 1.2865 5.00111C1.28732 5.27641 1.34073 5.46456 1.44753 5.84085C2.02151 7.86312 3.10449 9.77136 4.69648 11.3633C6.28847 12.9553 8.19671 14.0383 10.219 14.6123C10.5953 14.7191 10.7834 14.7725 11.0587 14.7733C11.3642 14.7742 11.7779 14.6667 12.0442 14.517C12.2842 14.3822 12.4608 14.2057 12.8138 13.8526L12.9189 13.7475C13.2732 13.3932 13.4504 13.2161 13.5466 13.0258C13.738 12.6474 13.738 12.2006 13.5466 11.8222C13.4504 11.632 13.2732 11.4548 12.9189 11.1005L12.789 10.9706C12.5559 10.7375 12.4394 10.621 12.3222 10.5448C11.8803 10.2575 11.3106 10.2575 10.8687 10.5448C10.7515 10.621 10.6349 10.7375 10.4019 10.9706C10.3257 11.0468 10.2875 11.0849 10.243 11.1168C10.0847 11.2301 9.85521 11.2693 9.66831 11.2148C9.61572 11.1995 9.57415 11.1795 9.49103 11.1396C8.52461 10.6756 7.61885 10.0431 6.8178 9.24203Z" stroke="#7E8792" stroke-width="1.5" stroke-linecap="round" stroke-linejoin="round"/>
</svg>
