<svg width="16" height="16" viewBox="0 0 16 16" fill="none" xmlns="http://www.w3.org/2000/svg">
<path d="M6.00016 7.99998L7.3335 9.33331L10.3335 6.33331M6.13476 13.7339C6.35326 13.705 6.57399 13.7643 6.74805 13.8983L7.5502 14.5139C7.81536 14.7176 8.18422 14.7176 8.44864 14.5139L9.28117 13.8746C9.43671 13.7554 9.63299 13.7028 9.82705 13.7287L10.8684 13.8657C11.1995 13.9094 11.5188 13.725 11.6469 13.4161L12.0476 12.4473C12.1224 12.2658 12.2661 12.1221 12.4476 12.0473L13.4164 11.6465C13.7252 11.5191 13.9097 11.1992 13.866 10.868L13.7341 9.86437C13.7052 9.64586 13.7645 9.42513 13.8986 9.25106L14.5141 8.44886C14.7178 8.18368 14.7178 7.8148 14.5141 7.55036L13.8749 6.71779C13.7556 6.56224 13.703 6.36595 13.7289 6.17188L13.866 5.13043C13.9097 4.79933 13.7252 4.48008 13.4164 4.35193L12.4476 3.9512C12.2661 3.87639 12.1224 3.73269 12.0476 3.55121L11.6469 2.58235C11.5195 2.27347 11.1995 2.08903 10.8684 2.13274L9.82705 2.26977C9.63299 2.29643 9.43671 2.24384 9.28191 2.12533L8.44938 1.48609C8.18422 1.28239 7.81536 1.28239 7.55094 1.48609L6.71842 2.12533C6.56288 2.24384 6.3666 2.29643 6.17254 2.27125L5.13114 2.13422C4.80006 2.09051 4.48083 2.27495 4.35269 2.58383L3.95272 3.5527C3.87717 3.73343 3.73348 3.87713 3.55276 3.95268L2.58395 4.35267C2.27508 4.48082 2.09066 4.80007 2.13436 5.13117L2.27138 6.17262C2.29656 6.36669 2.24398 6.56298 2.12547 6.71779L1.48626 7.55036C1.28257 7.81554 1.28257 8.18442 1.48626 8.44886L2.12547 9.28143C2.24472 9.43698 2.2973 9.63327 2.27138 9.82734L2.13436 10.8688C2.09066 11.1999 2.27508 11.5191 2.58395 11.6473L3.55276 12.048C3.73422 12.1228 3.87791 12.2665 3.95272 12.448L4.35343 13.4169C4.48083 13.7257 4.8008 13.9102 5.13188 13.8665L6.13476 13.7339Z" stroke="#03CA9D" stroke-width="1.5" stroke-linecap="round" stroke-linejoin="round"/>
</svg>
