<svg width="16" height="16" viewBox="0 0 16 16" fill="none" xmlns="http://www.w3.org/2000/svg">
<path d="M2.05057 4.98853L4.90927 7.03042C5.05802 7.13666 5.1324 7.18979 5.21024 7.20203C5.27873 7.2128 5.34887 7.20195 5.41091 7.17098C5.48141 7.13578 5.53625 7.06266 5.64593 6.91642L6.24999 6.11099C6.28101 6.06964 6.29652 6.04896 6.31475 6.03112C6.33093 6.01528 6.34869 6.00114 6.36774 5.9889C6.3892 5.97511 6.41282 5.96462 6.46006 5.94362L9.03912 4.79737C9.14603 4.74986 9.19948 4.7261 9.23979 4.689C9.27544 4.65618 9.30351 4.61598 9.32204 4.57121C9.34299 4.52058 9.34688 4.46222 9.35466 4.34548L9.5435 1.51292M8.99992 8.99998L10.7439 9.74741C10.9463 9.83413 11.0474 9.87749 11.101 9.94951C11.1481 10.0127 11.1712 10.0905 11.1663 10.1691C11.1608 10.2587 11.0997 10.3503 10.9776 10.5335L10.1582 11.7625C10.1004 11.8493 10.0714 11.8927 10.0332 11.9242C9.99932 11.952 9.96032 11.9729 9.91839 11.9856C9.87102 12 9.81884 12 9.71449 12H8.38432C8.24609 12 8.17698 12 8.11817 11.9769C8.06624 11.9564 8.02027 11.9233 7.98447 11.8805C7.94393 11.832 7.92207 11.7665 7.87836 11.6353L7.40311 10.2096C7.37733 10.1322 7.36444 10.0935 7.36104 10.0542C7.35804 10.0194 7.36053 9.98428 7.36844 9.9502C7.37736 9.91177 7.39559 9.87531 7.43205 9.80239L7.79306 9.08037C7.86641 8.93367 7.90308 8.86032 7.95957 8.81479C8.00935 8.77465 8.06962 8.74969 8.1332 8.74287C8.20535 8.73512 8.28314 8.76105 8.43874 8.81292L8.99992 8.99998ZM14.6666 7.99998C14.6666 11.6819 11.6818 14.6666 7.99992 14.6666C4.31802 14.6666 1.33325 11.6819 1.33325 7.99998C1.33325 4.31808 4.31802 1.33331 7.99992 1.33331C11.6818 1.33331 14.6666 4.31808 14.6666 7.99998Z" stroke="#7E8792" stroke-width="1.5" stroke-linecap="round" stroke-linejoin="round"/>
</svg>
