<svg width="14" height="14" viewBox="0 0 14 14" fill="none" xmlns="http://www.w3.org/2000/svg">
<path d="M9 13V9.4C9 9.02663 9 8.83995 8.92734 8.69734C8.86342 8.5719 8.76144 8.46991 8.63599 8.406C8.49339 8.33333 8.3067 8.33333 7.93333 8.33333H6.06667C5.6933 8.33333 5.50661 8.33333 5.36401 8.406C5.23857 8.46991 5.13658 8.5719 5.07266 8.69734C5 8.83995 5 9.02663 5 9.4V13M1 3.66667C1 4.77124 1.89543 5.66667 3 5.66667C4.10457 5.66667 5 4.77124 5 3.66667C5 4.77124 5.89543 5.66667 7 5.66667C8.10457 5.66667 9 4.77124 9 3.66667C9 4.77124 9.89543 5.66667 11 5.66667C12.1046 5.66667 13 4.77124 13 3.66667M3.13333 13H10.8667C11.6134 13 11.9868 13 12.272 12.8547C12.5229 12.7268 12.7268 12.5229 12.8547 12.272C13 11.9868 13 11.6134 13 10.8667V3.13333C13 2.3866 13 2.01323 12.8547 1.72801C12.7268 1.47713 12.5229 1.27316 12.272 1.14532C11.9868 1 11.6134 1 10.8667 1H3.13333C2.3866 1 2.01323 1 1.72801 1.14532C1.47713 1.27316 1.27316 1.47713 1.14532 1.72801C1 2.01323 1 2.3866 1 3.13333V10.8667C1 11.6134 1 11.9868 1.14532 12.272C1.27316 12.5229 1.47713 12.7268 1.72801 12.8547C2.01323 13 2.3866 13 3.13333 13Z" stroke="#7E8792" stroke-width="1.5" stroke-linecap="round" stroke-linejoin="round"/>
</svg>
