<svg width="16" height="14" viewBox="0 0 16 14" fill="none" xmlns="http://www.w3.org/2000/svg">
<path d="M14.6666 5H1.33325M9.33325 10.6667L10.9999 9L9.33325 7.33333M6.66659 7.33333L4.99992 9L6.66659 10.6667M1.33325 4.2L1.33325 9.8C1.33325 10.9201 1.33325 11.4802 1.55124 11.908C1.74299 12.2843 2.04895 12.5903 2.42527 12.782C2.85309 13 3.41315 13 4.53325 13H11.4666C12.5867 13 13.1467 13 13.5746 12.782C13.9509 12.5903 14.2569 12.2843 14.4486 11.908C14.6666 11.4802 14.6666 10.9201 14.6666 9.8V4.2C14.6666 3.0799 14.6666 2.51984 14.4486 2.09202C14.2569 1.7157 13.9509 1.40973 13.5746 1.21799C13.1467 1 12.5867 1 11.4666 1L4.53325 1C3.41315 1 2.85309 1 2.42527 1.21799C2.04895 1.40973 1.74299 1.71569 1.55124 2.09202C1.33325 2.51984 1.33325 3.0799 1.33325 4.2Z" stroke="#7E8792" stroke-width="1.5" stroke-linecap="round" stroke-linejoin="round"/>
</svg>
